<?xml version="1.0" encoding="UTF-8" standalone="no" ?>
<!DOCTYPE svg PUBLIC "-//W3C//DTD SVG 1.1//EN" "http://www.w3.org/Graphics/SVG/1.1/DTD/svg11.dtd">
<svg xmlns="http://www.w3.org/2000/svg" xmlns:xlink="http://www.w3.org/1999/xlink" version="1.1" width="500" height="500" viewBox="0 0 500 500" xml:space="preserve">
<desc>Created with Fabric.js 3.6.3</desc>
<defs>
</defs>
<rect x="0" y="0" width="100%" height="100%" fill="#ffffff"></rect>
<g transform="matrix(3.33 0 0 3.33 249.99999999999997 250.54199999999992)"  >
<g style=""   >
		<g transform="matrix(1 0 0 1 0 0)"  >
<path style="stroke: none; stroke-width: 1; stroke-dasharray: none; stroke-linecap: butt; stroke-dashoffset: 0; stroke-linejoin: miter; stroke-miterlimit: 4; fill: rgb(245,79,41); fill-rule: nonzero; opacity: 1;"  transform=" translate(-45, -45)" d="M 45 9.4 C 25.4 9.4 9.4 25.4 9.4 45 c 0 19.6 16 35.6 35.6 35.6 s 35.6 -16 35.6 -35.6 C 80.6 25.4 64.6 9.4 45 9.4 z M 45 78.8 c -18.7 0 -33.8 -15.1 -33.8 -33.8 c 0 -18.7 15.1 -33.8 33.8 -33.8 c 18.7 0 33.8 15.1 33.8 33.8 C 78.8 63.7 63.7 78.8 45 78.8 z M 45 9.4 C 25.4 9.4 9.4 25.4 9.4 45 c 0 19.6 16 35.6 35.6 35.6 s 35.6 -16 35.6 -35.6 C 80.6 25.4 64.6 9.4 45 9.4 z M 45 78.8 c -18.7 0 -33.8 -15.1 -33.8 -33.8 c 0 -18.7 15.1 -33.8 33.8 -33.8 c 18.7 0 33.8 15.1 33.8 33.8 C 78.8 63.7 63.7 78.8 45 78.8 z M 45 9.4 C 25.4 9.4 9.4 25.4 9.4 45 c 0 19.6 16 35.6 35.6 35.6 s 35.6 -16 35.6 -35.6 C 80.6 25.4 64.6 9.4 45 9.4 z M 45 78.8 c -18.7 0 -33.8 -15.1 -33.8 -33.8 c 0 -18.7 15.1 -33.8 33.8 -33.8 c 18.7 0 33.8 15.1 33.8 33.8 C 78.8 63.7 63.7 78.8 45 78.8 z M 45 9.4 C 25.4 9.4 9.4 25.4 9.4 45 c 0 19.6 16 35.6 35.6 35.6 s 35.6 -16 35.6 -35.6 C 80.6 25.4 64.6 9.4 45 9.4 z M 45 78.8 c -18.7 0 -33.8 -15.1 -33.8 -33.8 c 0 -18.7 15.1 -33.8 33.8 -33.8 c 18.7 0 33.8 15.1 33.8 33.8 C 78.8 63.7 63.7 78.8 45 78.8 z M 45 9.4 C 25.4 9.4 9.4 25.4 9.4 45 c 0 19.6 16 35.6 35.6 35.6 s 35.6 -16 35.6 -35.6 C 80.6 25.4 64.6 9.4 45 9.4 z M 45 78.8 c -18.7 0 -33.8 -15.1 -33.8 -33.8 c 0 -18.7 15.1 -33.8 33.8 -33.8 c 18.7 0 33.8 15.1 33.8 33.8 C 78.8 63.7 63.7 78.8 45 78.8 z M 45 9.4 C 25.4 9.4 9.4 25.4 9.4 45 c 0 19.6 16 35.6 35.6 35.6 s 35.6 -16 35.6 -35.6 C 80.6 25.4 64.6 9.4 45 9.4 z M 45 78.8 c -18.7 0 -33.8 -15.1 -33.8 -33.8 c 0 -18.7 15.1 -33.8 33.8 -33.8 c 18.7 0 33.8 15.1 33.8 33.8 C 78.8 63.7 63.7 78.8 45 78.8 z M 88.8 41.5 c -2.5 -3.2 -3.2 -6.4 -2.2 -10.2 c 0.7 -2.6 -0.5 -5.2 -2.8 -6.5 c -3.2 -1.8 -5 -4.4 -5.5 -8 c -0.3 -2.6 -2.4 -4.7 -5.1 -5.1 c -3.6 -0.5 -6.2 -2.2 -8 -5.5 c -1.3 -2.3 -4 -3.5 -6.5 -2.8 c -3.8 1 -7 0.3 -10.2 -2.2 c -2 -1.6 -4.9 -1.6 -7 0 c -3.2 2.5 -6.5 3.2 -10.2 2.2 c -2.6 -0.7 -5.2 0.5 -6.5 2.8 c -1.8 3.2 -4.4 5 -8 5.5 c -2.6 0.3 -4.7 2.4 -5.1 5.1 c -0.5 3.6 -2.2 6.2 -5.5 8 c -2.3 1.3 -3.5 4 -2.8 6.5 c 1 3.8 0.3 7 -2.2 10.2 c -1.6 2 -1.6 5 0 7 c 2.5 3.2 3.2 6.5 2.2 10.2 c -0.7 2.6 0.5 5.2 2.8 6.5 c 3.2 1.8 5 4.4 5.5 8 c 0.3 2.6 2.4 4.7 5.1 5.1 c 3.6 0.5 6.2 2.2 8 5.5 c 1.3 2.3 4 3.5 6.5 2.8 c 3.8 -1 7 -0.3 10.2 2.2 c 2 1.6 4.9 1.6 7 0 c 3.2 -2.5 6.5 -3.2 10.2 -2.2 c 2.6 0.7 5.2 -0.5 6.5 -2.8 c 1.8 -3.2 4.4 -5 8 -5.5 c 2.6 -0.3 4.7 -2.4 5.1 -5.1 c 0.5 -3.6 2.2 -6.2 5.5 -8 c 2.3 -1.3 3.5 -4 2.8 -6.5 c -1 -3.8 -0.3 -7 2.2 -10.2 C 90.4 46.5 90.4 43.5 88.8 41.5 z M 45 82.5 C 24.3 82.5 7.5 65.7 7.5 45 C 7.5 24.3 24.3 7.5 45 7.5 c 20.7 0 37.5 16.8 37.5 37.5 C 82.5 65.7 65.7 82.5 45 82.5 z M 45 9.4 C 25.4 9.4 9.4 25.4 9.4 45 c 0 19.6 16 35.6 35.6 35.6 s 35.6 -16 35.6 -35.6 C 80.6 25.4 64.6 9.4 45 9.4 z M 45 78.8 c -18.7 0 -33.8 -15.1 -33.8 -33.8 c 0 -18.7 15.1 -33.8 33.8 -33.8 c 18.7 0 33.8 15.1 33.8 33.8 C 78.8 63.7 63.7 78.8 45 78.8 z M 45 9.4 C 25.4 9.4 9.4 25.4 9.4 45 c 0 19.6 16 35.6 35.6 35.6 s 35.6 -16 35.6 -35.6 C 80.6 25.4 64.6 9.4 45 9.4 z M 45 78.8 c -18.7 0 -33.8 -15.1 -33.8 -33.8 c 0 -18.7 15.1 -33.8 33.8 -33.8 c 18.7 0 33.8 15.1 33.8 33.8 C 78.8 63.7 63.7 78.8 45 78.8 z M 45 9.4 C 25.4 9.4 9.4 25.4 9.4 45 c 0 19.6 16 35.6 35.6 35.6 s 35.6 -16 35.6 -35.6 C 80.6 25.4 64.6 9.4 45 9.4 z M 45 78.8 c -18.7 0 -33.8 -15.1 -33.8 -33.8 c 0 -18.7 15.1 -33.8 33.8 -33.8 c 18.7 0 33.8 15.1 33.8 33.8 C 78.8 63.7 63.7 78.8 45 78.8 z M 45 9.4 C 25.4 9.4 9.4 25.4 9.4 45 c 0 19.6 16 35.6 35.6 35.6 s 35.6 -16 35.6 -35.6 C 80.6 25.4 64.6 9.4 45 9.4 z M 45 78.8 c -18.7 0 -33.8 -15.1 -33.8 -33.8 c 0 -18.7 15.1 -33.8 33.8 -33.8 c 18.7 0 33.8 15.1 33.8 33.8 C 78.8 63.7 63.7 78.8 45 78.8 z M 45 9.4 C 25.4 9.4 9.4 25.4 9.4 45 c 0 19.6 16 35.6 35.6 35.6 s 35.6 -16 35.6 -35.6 C 80.6 25.4 64.6 9.4 45 9.4 z M 45 78.8 c -18.7 0 -33.8 -15.1 -33.8 -33.8 c 0 -18.7 15.1 -33.8 33.8 -33.8 c 18.7 0 33.8 15.1 33.8 33.8 C 78.8 63.7 63.7 78.8 45 78.8 z" stroke-linecap="round" />
</g>
		<g transform="matrix(1 0 0 1 -7.10543e-15 -7.10543e-15)"  >
<path style="stroke: none; stroke-width: 1; stroke-dasharray: none; stroke-linecap: butt; stroke-dashoffset: 0; stroke-linejoin: miter; stroke-miterlimit: 4; fill: rgb(245,79,41); fill-rule: nonzero; opacity: 1;"  transform=" translate(-44.99999999999999, -44.99999999999999)" d="M 45 9.4 C 25.4 9.4 9.4 25.4 9.4 45 c 0 19.6 16 35.6 35.6 35.6 s 35.6 -16 35.6 -35.6 C 80.6 25.4 64.6 9.4 45 9.4 z M 45 78.8 c -18.7 0 -33.8 -15.1 -33.8 -33.8 c 0 -18.7 15.1 -33.8 33.8 -33.8 c 18.7 0 33.8 15.1 33.8 33.8 C 78.8 63.7 63.7 78.8 45 78.8 z" stroke-linecap="round" />
</g>
		<g transform="matrix(1 0 0 1 -7.10543e-15 -7.10543e-15)"  >
<path style="stroke: none; stroke-width: 1; stroke-dasharray: none; stroke-linecap: butt; stroke-dashoffset: 0; stroke-linejoin: miter; stroke-miterlimit: 4; fill: rgb(245,79,41); fill-rule: nonzero; opacity: 1;"  transform=" translate(-44.99999999999999, -44.99999999999999)" d="M 45 9.4 C 25.4 9.4 9.4 25.4 9.4 45 c 0 19.6 16 35.6 35.6 35.6 s 35.6 -16 35.6 -35.6 C 80.6 25.4 64.6 9.4 45 9.4 z M 45 78.8 c -18.7 0 -33.8 -15.1 -33.8 -33.8 c 0 -18.7 15.1 -33.8 33.8 -33.8 c 18.7 0 33.8 15.1 33.8 33.8 C 78.8 63.7 63.7 78.8 45 78.8 z" stroke-linecap="round" />
</g>
</g>
</g>
<g transform="matrix(1 0 0 1 249.99999999999997 261.5386150659065)" style=""  ><path fill="#000000" opacity="1" d="M-84.21-16.76L-82.29-18.07L-82.29-19.54L-91.23-19.54L-91.23-18.07L-89.31-16.76C-89.31-6.86-89.31 2.99-89.31 12.88L-91.58 14.40L-91.58 15.86C-88.65 15.86-84.87 15.86-81.99 15.86L-81.99 14.40L-84.21 12.88C-84.21 2.99-84.21-6.86-84.21-16.76ZM-89.46-25.04C-89.46-21.46-84.01-21.46-84.01-25.04C-84.01-28.63-89.46-28.63-89.46-25.04L-89.46-25.04Z"/><path fill="#000000" opacity="1" d="M-66.99-16.41C-63.55-16.41-62.34-14.54-62.34-11.30L-62.34-4.99C-62.34-1.76-63.66 0.06-67.04 0.06L-70.27 0.06C-70.27-5.40-70.27-10.90-70.27-16.41ZM-57.09-11.30C-57.09-17.47-61.58-19.54-67.04-19.54L-77.29-19.54L-77.29-18.07L-75.37-16.76C-75.37-6.96-75.37 3.09-75.37 12.88L-77.64 14.40L-77.64 15.86C-74.71 15.86-70.93 15.86-68.05 15.86L-68.05 14.40L-70.27 12.88C-70.27 9.65-70.27 6.22-70.27 2.99L-67.14 2.99C-61.58 2.99-57.09 1.32-57.09-4.99Z"/><path fill="#000000" opacity="1" d="M-34.11 15.86L-34.11 7.94L-36.33 7.94L-38.05 12.78C-40.93 12.78-43.76 12.78-46.64 12.78L-46.64 12.53C-45.78 12.23-45.58 11.77-45.58 10.97C-45.58 7.23-45.58 3.54-45.58-0.19L-40.73-0.19L-39.42 2.48L-37.90 2.48C-37.90 0.01-37.90-3.58-37.90-6.05L-39.42-6.05L-40.73-3.28L-45.58-3.28C-45.58-7.72-45.58-12.16-45.58-16.56L-38.71-16.56L-37.29-11.61L-34.77-11.61L-34.77-19.54C-40.93-19.54-46.59-19.54-52.75-19.54L-52.75-18.22L-50.83-16.91C-50.83-7.01-50.83 2.94-50.83 12.88L-53.10 14.40L-53.10 15.86C-46.74 15.86-40.43 15.86-34.11 15.86Z"/><path fill="#000000" opacity="1" d="M-7.70-19.54C-9.62-19.54-11.84-19.79-13.46-18.68C-18.05-15.45-16.19-4.29-22.60-4.29L-22.60-16.76L-20.68-18.07L-20.68-19.54L-29.62-19.54L-29.62-18.07L-27.70-16.76C-27.70-6.86-27.70 2.99-27.70 12.88L-29.92 14.40L-29.92 15.86C-27.04 15.86-23.26 15.86-20.33 15.86L-20.33 14.40L-22.60 12.88C-22.60 8.09-22.60 3.34-22.60-1.46L-21.08-1.46C-17.90-1.46-16.74 1.07-16.08 4.20L-14.62 11.22C-14.01 14.05-12.90 16.17-9.67 16.17C-8.76 16.17-7.30 16.07-6.29 15.51L-6.29 13.54C-7.85 13.89-8.91 12.23-9.27 10.56L-10.83 3.19C-11.54-0.04-12.95-3.17-15.58-3.43L-15.58-3.53C-13.26-4.29-11.69-12.52-10.58-15.14C-9.92-16.71-9.42-17.62-7.70-17.57L-7.70-19.54Z"/><path fill="#000000" opacity="1" d="M7.20-16.41C10.63-16.41 11.84-14.54 11.84-11.30L11.84-4.99C11.84-1.76 10.53 0.06 7.15 0.06L3.91 0.06C3.91-5.40 3.91-10.90 3.91-16.41ZM17.09-11.30C17.09-17.47 12.60-19.54 7.15-19.54L-3.11-19.54L-3.11-18.07L-1.19-16.76C-1.19-6.96-1.19 3.09-1.19 12.88L-3.46 14.40L-3.46 15.86C-0.53 15.86 3.26 15.86 6.14 15.86L6.14 14.40L3.91 12.88C3.91 9.65 3.91 6.22 3.91 2.99L7.04 2.99C12.60 2.99 17.09 1.32 17.09-4.99Z"/><path fill="#000000" opacity="1" d="M28.46-16.76L30.38-18.07L30.38-19.54L21.44-19.54L21.44-18.07L23.36-16.76C23.36-6.86 23.36 2.99 23.36 12.88L21.08 14.40L21.08 15.86C24.01 15.86 27.80 15.86 30.68 15.86L30.68 14.40L28.46 12.88C28.46 2.99 28.46-6.86 28.46-16.76ZM23.20-25.04C23.20-21.46 28.66-21.46 28.66-25.04C28.66-28.63 23.20-28.63 23.20-25.04L23.20-25.04Z"/><path fill="#000000" opacity="1" d="M53.50 15.86L53.50 7.94L51.28 7.94L49.57 12.78C46.69 12.78 44.36 12.78 41.49 12.78L41.49 12.53C42.34 12.23 42.55 11.77 42.55 10.97C42.55 1.72 42.55-7.52 42.55-16.76L44.47-18.07L44.47-19.54L35.38-19.54L35.38-18.07L37.29-16.76C37.29-6.86 37.29 2.99 37.29 12.88L35.02 14.40L35.02 15.86C41.33 15.86 47.14 15.86 53.50 15.86Z"/><path fill="#000000" opacity="1" d="M64.06-16.76L65.98-18.07L65.98-19.54L57.04-19.54L57.04-18.07L58.96-16.76C58.96-6.86 58.96 2.99 58.96 12.88L56.69 14.40L56.69 15.86C59.62 15.86 63.40 15.86 66.28 15.86L66.28 14.40L64.06 12.88C64.06 2.99 64.06-6.86 64.06-16.76ZM58.81-25.04C58.81-21.46 64.26-21.46 64.26-25.04C64.26-28.63 58.81-28.63 58.81-25.04L58.81-25.04Z"/><path fill="#000000" opacity="1" d="M77.54 25.36C80.77 27.18 87.39 27.13 87.39 22.28C87.39 19.35 84.92 18.49 82.44 18.64L83.05 16.37C88.00 15.91 91.58 13.14 91.58 7.43L91.58 5.51L86.33 5.51L86.33 7.38C86.33 10.97 85.27 13.09 81.58 13.09C78.55 13.09 76.89 11.22 76.89 7.03L76.89-10.50C76.89-14.94 79.06-16.56 81.43-16.56C85.07-16.51 86.03-13.88 86.03-10.70L86.03-9.74L91.28-9.74L91.28-19.64L87.79-19.64L87.39-17.72L87.24-17.72C85.72-19.38 83.45-19.89 81.28-19.89C75.32-19.89 71.63-16.51 71.63-10.50L71.63 7.03C71.63 13.09 75.52 16.07 80.72 16.37L79.41 20.76C80.83 20.61 84.56 20.31 84.41 22.38C84.31 24.65 79.82 24.50 77.95 22.98Z"/></g><g transform="matrix(1 0 0 1 250 310.5841532956568)" style=""  ><path fill="#000000" opacity="1" d="M-75.94-4.63L-75.94 3.77L-68.81 3.77L-68.81 2.09L-74.26 2.09L-74.26-4.63Z"/><path fill="#000000" opacity="1" d="M-60.84 3.77L-60.84 2.09L-66.29 2.09L-66.29 0.42L-61.26 0.42L-61.26-1.26L-66.29-1.26L-66.29-2.95L-60.84-2.95L-60.84-4.63L-67.97-4.63L-67.97 3.77Z"/><path fill="#000000" opacity="1" d="M-52.46-4.63L-60.00-4.63L-60.00-2.95L-54.97-2.95L-60.00 2.09L-60.00 3.77L-52.46 3.77L-52.46 2.09L-57.49 2.09L-52.46-2.95Z"/><path fill="#000000" opacity="1" d="M-44.21-4.63L-51.74-4.63L-51.74-2.95L-46.72-2.95L-51.74 2.09L-51.74 3.77L-44.21 3.77L-44.21 2.09L-49.24 2.09L-44.21-2.95Z"/><path fill="#000000" opacity="1" d="M-36.12 3.77L-36.12 2.09L-41.57 2.09L-41.57 0.42L-36.54 0.42L-36.54-1.26L-41.57-1.26L-41.57-2.95L-36.12-2.95L-36.12-4.63L-43.25-4.63L-43.25 3.77Z"/><path fill="#000000" opacity="1" d="M-30.78 3.77L-30.78-2.95L-27.86-2.95L-27.86-4.63L-35.40-4.63L-35.40-2.95L-32.46-2.95L-32.46 3.77Z"/><path fill="#000000" opacity="1" d="M-25.34 3.77L-25.34-4.63L-27.02-4.63L-27.02 3.77Z"/><path fill="#000000" opacity="1" d="M-16.61 3.77L-16.61-4.63L-18.28-4.63L-18.28 0.96L-22.46-4.63L-24.14-4.63L-24.14 3.77L-22.46 3.77L-22.46-1.83L-18.28 3.77Z"/><path fill="#000000" opacity="1" d=""/><path fill="#000000" opacity="1" d="M-6.35 3.77L-6.35-2.95L-3.43-2.95L-3.43-4.63L-10.97-4.63L-10.97-2.95L-8.03-2.95L-8.03 3.77Z"/><path fill="#000000" opacity="1" d="M-1.03-0.42L-1.03-1.26L0.64-2.95L3.16-2.95L3.16-0.42ZM-1.03 3.77L-1.03 1.26L3.16 1.26L3.16 3.77L4.82 3.77L4.82-4.63L-0.20-4.63L-2.71-2.10L-2.71 3.77Z"/><path fill="#000000" opacity="1" d="M13.56-2.11L11.05-4.63L6.02-4.63L6.02 3.77L12.73 3.77L13.56 2.94ZM11.89 2.09L7.70 2.09L7.70-2.95L10.21-2.95L11.89-1.27Z"/><path fill="#000000" opacity="1" d="M16.32 3.77L16.32-4.63L14.64-4.63L14.64 3.77Z"/><path fill="#000000" opacity="1" d="M25.06 3.77L25.06-4.63L23.39-4.63L23.39 0.96L19.20-4.63L17.52-4.63L17.52 3.77L19.20 3.77L19.20-1.83L23.39 3.77Z"/><path fill="#000000" opacity="1" d="M27.82-0.42L27.82-1.26L29.48-2.95L32.00-2.95L32.00-0.42ZM27.82 3.77L27.82 1.26L32.00 1.26L32.00 3.77L33.67 3.77L33.67-4.63L28.64-4.63L26.14-2.10L26.14 3.77Z"/><path fill="#000000" opacity="1" d=""/><path fill="#000000" opacity="1" d="M43.74 2.09L42.90 2.09L41.23 0.42L41.23-4.63L39.55-4.63L39.55 1.26L42.06 3.77L44.58 3.77L47.09 1.26L47.09-4.63L45.42-4.63L45.42 0.42Z"/><path fill="#000000" opacity="1" d="M49.73-0.42L49.73-1.26L51.40-2.95L53.92-2.95L53.92-0.42ZM49.73 3.77L49.73 1.26L53.92 1.26L53.92 3.77L55.58 3.77L55.58-4.63L50.56-4.63L48.05-2.10L48.05 3.77Z"/><path fill="#000000" opacity="1" d="M58.46-0.42L58.46-2.95L62.65-2.95L62.65-0.42ZM64.32 3.77L64.32 2.09L63.49 1.26L64.32 0.42L64.32-3.78L63.49-4.63L56.78-4.63L56.78 3.77L58.46 3.77L58.46 1.26L60.97 1.26L61.81 2.09L62.65 2.94L62.65 3.77Z"/><path fill="#000000" opacity="1" d="M67.20 3.77L67.20-4.63L65.52-4.63L65.52 3.77Z"/><path fill="#000000" opacity="1" d="M75.94 3.77L75.94-4.63L74.27-4.63L74.27 0.96L70.08-4.63L68.40-4.63L68.40 3.77L70.08 3.77L70.08-1.83L74.27 3.77Z"/></g><g transform="matrix(0.5555482808789372 0 0 0.5555482808789372 250.00000000000003 188.1742378670201)"  >
<path style="stroke: none; stroke-width: 0; stroke-dasharray: none; stroke-linecap: butt; stroke-dashoffset: 0; stroke-linejoin: miter; stroke-miterlimit: 4; fill: rgb(255,87,87); fill-rule: nonzero; opacity: 1;"  transform=" translate(-50.00000731530443, -49.05293236759933)" d="M 99.979 29.686 c 0 -0.567 -0.198 -1.084 -0.519 -1.501 l 0 0 l -0.012 -0.014 c -0.074 -0.095 -0.148 -0.187 -0.233 -0.268 l -5.841 -6.69 c 0.885 -0.75 1.73 -1.739 2.44 -2.915 c 2.09 -3.486 2.195 -7.273 0.219 -8.454 c -0.64 -0.387 -1.428 -0.444 -2.264 -0.232 c 0.008 -0.036 0.021 -0.071 0.029 -0.105 c 0.951 -4.362 -1.307 -8.557 -5.04 -9.369 c -3.733 -0.815 -7.53 2.06 -8.484 6.418 c -0.122 0.581 -0.192 1.156 -0.208 1.721 c -0.522 -0.155 -1.064 -0.246 -1.622 -0.246 c -3.88 0 -7.026 3.915 -7.026 8.744 c 0 2.417 0.789 4.605 2.062 6.19 C 69.235 26 53.624 37.149 48.595 40.801 c -5.842 4.238 -9.818 0 -9.818 0 l -18.476 -16.58 l 0 0 c -2.025 -1.859 -4.718 -3.006 -7.684 -3.006 c -6.285 0 -11.374 5.091 -11.374 11.372 c 0 2.768 0.993 5.304 2.636 7.279 C 1.48 42.362 0 45.751 0 49.491 c 0 4.045 1.729 7.687 4.486 10.225 c -0.021 0.258 -0.04 0.511 -0.04 0.776 c 0 4.626 3.322 8.469 7.707 9.289 c 0 0.014 -0.002 0.029 -0.002 0.041 c 0 3.49 2.829 6.316 6.316 6.316 c 1.521 0 2.913 -0.538 4.003 -1.431 c 2.862 2.593 7.062 4.653 11.952 5.584 c 1.798 0.339 3.565 0.503 5.26 0.503 l 10.653 6.884 v 2.785 c -5.018 1.061 -8.639 4.079 -8.639 7.643 h 25.23 c 0 -3.562 -3.618 -6.582 -8.64 -7.643 v -1.926 l 10.723 -7.367 c 0.563 0.123 1.142 0.2 1.73 0.224 c 8.907 0.363 16.603 -10.976 17.188 -25.324 c 0.172 -4.248 -0.303 -8.282 -1.283 -11.87 c 1.903 0.541 3.821 0.354 5.322 -0.71 c 2.581 -1.823 3.15 -5.63 1.642 -9.213 c 0.152 -0.014 0.297 -0.031 0.456 -0.056 C 96.637 33.808 100.311 31.746 99.979 29.686 z" stroke-linecap="round" />
</g>
<g transform="matrix(0.5099658761617909 -1.2491e-16 1.3925e-16 0.5685437592730368 293.1348882052291 191.0415962424569)"  >
<path style="stroke: none; stroke-width: 0; stroke-dasharray: none; stroke-linecap: butt; stroke-dashoffset: 0; stroke-linejoin: miter; stroke-miterlimit: 4; fill: rgb(0,0,0); fill-rule: nonzero; opacity: 1;"  transform=" translate(-49.811, -47.1975)" d="M 59.548 30.029 c -6.239 7.63 -2.797 10.774 -0.563 12.769 C 65.811 34.981 61.788 31.815 59.548 30.029 L 59.548 30.029 z M 78.551 45.218 c -7.152 8.739 -10.953 5.28 -13.085 3.375 C 72.547 40.49 76.21 43.342 78.551 45.218 L 78.551 45.218 z M 66.666 20.493 c -5.734 8.043 -2.09 10.95 0.27 12.794 C 73.24 25.023 69.02 22.125 66.666 20.493 L 66.666 20.493 z M 86.632 34.391 c -6.571 9.214 -10.592 6.009 -12.845 4.25 C 80.327 30.074 84.173 32.672 86.632 34.391 L 86.632 34.391 z M 73.152 10.477 c -5.203 8.434 -1.373 11.088 1.103 12.773 C 80.016 14.563 75.611 11.949 73.152 10.477 z M 94 23.018 c -5.967 9.662 -10.188 6.725 -12.555 5.12 C 87.421 19.133 91.432 21.466 94 23.018 L 94 23.018 z M 88.882 4.309 C 80.361 10.13 82.645 14.23 83.996 17 C 92.958 11.451 90.419 6.789 88.882 4.309 z M 5.622 87.475 c 27.104 -13.812 50.373 -33.846 68 -58.294 c 0.085 0.057 6.558 -9.493 9.53 -8.936 c -0.334 0.184 -3.731 6.342 -9.77 14.248 c -5.984 7.964 -14.607 17.674 -24.15 26.304 c -9.487 8.688 -19.89 16.294 -28.188 21.39 c -8.244 5.154 -14.383 7.797 -14.094 7.899 C 6.508 89.215 6.065 88.344 5.622 87.475 L 5.622 87.475 z M 51.829 39.057 c -6.724 7.193 -3.498 10.561 -1.401 12.698 C 57.751 44.411 53.943 40.988 51.829 39.057 L 51.829 39.057 z M 69.787 55.469 c -7.706 8.239 -11.271 4.539 -13.271 2.496 C 64.109 50.353 67.574 53.443 69.787 55.469 z" stroke-linecap="round" />
</g>
<g transform="matrix(-0.5047373618589289 1.2362e-16 1.4067e-16 0.5743342544924493 207.32943064873834 190.79325058823912)"  >
<path style="stroke: none; stroke-width: 0; stroke-dasharray: none; stroke-linecap: butt; stroke-dashoffset: 0; stroke-linejoin: miter; stroke-miterlimit: 4; fill: rgb(0,0,0); fill-rule: nonzero; opacity: 1;"  transform=" translate(-49.811, -47.1975)" d="M 59.548 30.029 c -6.239 7.63 -2.797 10.774 -0.563 12.769 C 65.811 34.981 61.788 31.815 59.548 30.029 L 59.548 30.029 z M 78.551 45.218 c -7.152 8.739 -10.953 5.28 -13.085 3.375 C 72.547 40.49 76.21 43.342 78.551 45.218 L 78.551 45.218 z M 66.666 20.493 c -5.734 8.043 -2.09 10.95 0.27 12.794 C 73.24 25.023 69.02 22.125 66.666 20.493 L 66.666 20.493 z M 86.632 34.391 c -6.571 9.214 -10.592 6.009 -12.845 4.25 C 80.327 30.074 84.173 32.672 86.632 34.391 L 86.632 34.391 z M 73.152 10.477 c -5.203 8.434 -1.373 11.088 1.103 12.773 C 80.016 14.563 75.611 11.949 73.152 10.477 z M 94 23.018 c -5.967 9.662 -10.188 6.725 -12.555 5.12 C 87.421 19.133 91.432 21.466 94 23.018 L 94 23.018 z M 88.882 4.309 C 80.361 10.13 82.645 14.23 83.996 17 C 92.958 11.451 90.419 6.789 88.882 4.309 z M 5.622 87.475 c 27.104 -13.812 50.373 -33.846 68 -58.294 c 0.085 0.057 6.558 -9.493 9.53 -8.936 c -0.334 0.184 -3.731 6.342 -9.77 14.248 c -5.984 7.964 -14.607 17.674 -24.15 26.304 c -9.487 8.688 -19.89 16.294 -28.188 21.39 c -8.244 5.154 -14.383 7.797 -14.094 7.899 C 6.508 89.215 6.065 88.344 5.622 87.475 L 5.622 87.475 z M 51.829 39.057 c -6.724 7.193 -3.498 10.561 -1.401 12.698 C 57.751 44.411 53.943 40.988 51.829 39.057 L 51.829 39.057 z M 69.787 55.469 c -7.706 8.239 -11.271 4.539 -13.271 2.496 C 64.109 50.353 67.574 53.443 69.787 55.469 z" stroke-linecap="round" />
</g>
</svg>